# MagicaVoxel @ Ephtracy

# group
o 

# material
mtllib MonsterBody.mtl
usemtl palette

# normals
vn -1 0 0
vn 1 0 0
vn 0 0 1
vn 0 0 -1
vn 0 -1 0
vn 0 1 0

# texcoords
vt 0.822266 0.5
vt 0.830078 0.5
vt 0.884766 0.5
vt 0.970703 0.5

# verts
v -0.5 0 0.5
v -0.5 0 -0.5
v -0.5 0.1 0.4
v -0.5 0.1 -0.4
v -0.5 0.2 0.4
v -0.5 0.2 -0.4
v -0.5 0.3 0.5
v -0.5 0.3 -0.5
v -0.4 0.1 0.4
v -0.4 0.1 -0.4
v -0.4 0.2 0.4
v -0.4 0.2 -0.4
v -0.3 0.3 0.4
v -0.3 0.3 -0.3
v -0.3 0.4 0.4
v -0.3 0.4 0.3
v -0.3 0.4 -0.2
v -0.3 0.4 -0.3
v -0.3 0.5 0.3
v -0.3 0.5 -0.2
v -0.2 0.5 0.2
v -0.2 0.5 -0.1
v -0.2 0.6 0.2
v -0.2 0.6 -0.1
v -0.1 0.5 0.3
v -0.1 0.5 0.2
v -0.1 0.6 0.3
v -0.1 0.6 0.2
v 0.1 0.5 0.3
v 0.1 0.5 0.2
v 0.1 0.6 0.3
v 0.1 0.6 0.2
v 0.2 0.5 0.2
v 0.2 0.5 -0.1
v 0.2 0.6 0.2
v 0.2 0.6 -0.1
v 0.3 0.3 0.4
v 0.3 0.3 -0.3
v 0.3 0.4 0.4
v 0.3 0.4 0.3
v 0.3 0.4 -0.2
v 0.3 0.4 -0.3
v 0.3 0.5 0.3
v 0.3 0.5 -0.2
v 0.4 0.1 0.1
v 0.4 0.1 -0.4
v 0.4 0.2 0.1
v 0.4 0.2 -0.4
v 0.5 0 0.5
v 0.5 0 -0.5
v 0.5 0.1 0.1
v 0.5 0.1 -0.4
v 0.5 0.2 0.1
v 0.5 0.2 -0.4
v 0.5 0.3 0.5
v 0.5 0.3 -0.5
v -0.5 0 0.5
v -0.5 0.3 0.5
v -0.4 0 0.5
v -0.4 0.3 0.5
v 0.4 0 0.5
v 0.4 0.3 0.5
v 0.5 0 0.5
v 0.5 0.3 0.5
v -0.3 0.3 0.4
v -0.3 0.4 0.4
v 0.3 0.3 0.4
v 0.3 0.4 0.4
v -0.3 0.4 0.3
v -0.3 0.5 0.3
v -0.1 0.5 0.3
v -0.1 0.6 0.3
v 0.1 0.5 0.3
v 0.1 0.6 0.3
v 0.3 0.4 0.3
v 0.3 0.5 0.3
v -0.2 0.5 0.2
v -0.2 0.6 0.2
v -0.1 0.5 0.2
v -0.1 0.6 0.2
v 0.1 0.5 0.2
v 0.1 0.6 0.2
v 0.2 0.5 0.2
v 0.2 0.6 0.2
v -0.5 0.1 -0.4
v -0.5 0.2 -0.4
v -0.4 0.1 -0.4
v -0.4 0.2 -0.4
v 0.4 0.1 -0.4
v 0.4 0.2 -0.4
v 0.5 0.1 -0.4
v 0.5 0.2 -0.4
v -0.5 0.1 0.4
v -0.5 0.2 0.4
v -0.4 0.1 0.4
v -0.4 0.2 0.4
v 0.4 0.1 0.1
v 0.4 0.2 0.1
v 0.5 0.1 0.1
v 0.5 0.2 0.1
v -0.2 0.5 -0.1
v -0.2 0.6 -0.1
v 0.2 0.5 -0.1
v 0.2 0.6 -0.1
v -0.3 0.4 -0.2
v -0.3 0.5 -0.2
v 0.3 0.4 -0.2
v 0.3 0.5 -0.2
v -0.3 0.3 -0.3
v -0.3 0.4 -0.3
v 0.3 0.3 -0.3
v 0.3 0.4 -0.3
v -0.5 0 -0.5
v -0.5 0.3 -0.5
v -0.4 0 -0.5
v -0.4 0.3 -0.5
v 0.4 0 -0.5
v 0.4 0.3 -0.5
v 0.5 0 -0.5
v 0.5 0.3 -0.5
v -0.5 0 0.5
v -0.4 0 0.5
v 0.4 0 0.5
v 0.5 0 0.5
v -0.5 0 -0.5
v -0.4 0 -0.5
v 0.4 0 -0.5
v 0.5 0 -0.5
v -0.5 0.2 0.4
v -0.4 0.2 0.4
v 0.4 0.2 0.1
v 0.5 0.2 0.1
v -0.5 0.2 -0.4
v -0.4 0.2 -0.4
v 0.4 0.2 -0.4
v 0.5 0.2 -0.4
v -0.5 0.1 0.4
v -0.4 0.1 0.4
v 0.4 0.1 0.1
v 0.5 0.1 0.1
v -0.5 0.1 -0.4
v -0.4 0.1 -0.4
v 0.4 0.1 -0.4
v 0.5 0.1 -0.4
v -0.5 0.3 0.5
v -0.4 0.3 0.5
v 0.4 0.3 0.5
v 0.5 0.3 0.5
v -0.3 0.3 0.4
v 0.3 0.3 0.4
v -0.3 0.3 -0.3
v 0.3 0.3 -0.3
v -0.5 0.3 -0.5
v -0.4 0.3 -0.5
v 0.4 0.3 -0.5
v 0.5 0.3 -0.5
v -0.3 0.4 0.4
v 0.3 0.4 0.4
v -0.3 0.4 0.3
v 0.3 0.4 0.3
v -0.3 0.4 -0.2
v 0.3 0.4 -0.2
v -0.3 0.4 -0.3
v 0.3 0.4 -0.3
v -0.3 0.5 0.3
v -0.1 0.5 0.3
v 0.1 0.5 0.3
v 0.3 0.5 0.3
v -0.2 0.5 0.2
v -0.1 0.5 0.2
v 0.1 0.5 0.2
v 0.2 0.5 0.2
v -0.2 0.5 -0.1
v 0.2 0.5 -0.1
v -0.3 0.5 -0.2
v 0.3 0.5 -0.2
v -0.1 0.6 0.3
v 0.1 0.6 0.3
v -0.2 0.6 0.2
v -0.1 0.6 0.2
v 0.1 0.6 0.2
v 0.2 0.6 0.2
v -0.2 0.6 -0.1
v 0.2 0.6 -0.1

# faces
f 3/4/1 2/4/1 1/4/1
f 4/4/1 2/4/1 3/4/1
f 5/4/1 3/4/1 1/4/1
f 6/4/1 2/4/1 4/4/1
f 7/4/1 5/4/1 1/4/1
f 7/4/1 6/4/1 5/4/1
f 8/4/1 2/4/1 6/4/1
f 8/4/1 6/4/1 7/4/1
f 11/1/1 10/1/1 9/1/1
f 12/1/1 10/1/1 11/1/1
f 15/2/1 14/2/1 13/2/1
f 16/2/1 14/2/1 15/2/1
f 17/2/1 14/2/1 16/2/1
f 18/2/1 14/2/1 17/2/1
f 19/2/1 17/2/1 16/2/1
f 20/2/1 17/2/1 19/2/1
f 23/1/1 22/1/1 21/1/1
f 24/1/1 22/1/1 23/1/1
f 27/1/1 26/1/1 25/1/1
f 28/1/1 26/1/1 27/1/1
f 29/1/2 30/1/2 31/1/2
f 31/1/2 30/1/2 32/1/2
f 33/1/2 34/1/2 35/1/2
f 35/1/2 34/1/2 36/1/2
f 37/2/2 38/2/2 39/2/2
f 39/2/2 38/2/2 40/2/2
f 40/2/2 38/2/2 41/2/2
f 41/2/2 38/2/2 42/2/2
f 40/2/2 41/2/2 43/2/2
f 43/2/2 41/2/2 44/2/2
f 45/1/2 46/1/2 47/1/2
f 47/1/2 46/1/2 48/1/2
f 49/4/2 50/4/2 51/4/2
f 51/4/2 50/4/2 52/4/2
f 49/4/2 51/4/2 53/4/2
f 52/4/2 50/4/2 54/4/2
f 49/4/2 53/4/2 55/4/2
f 53/4/2 54/4/2 55/4/2
f 54/4/2 50/4/2 56/4/2
f 55/4/2 54/4/2 56/4/2
f 59/4/3 58/4/3 57/4/3
f 60/4/3 58/4/3 59/4/3
f 61/1/3 60/1/3 59/1/3
f 62/1/3 60/1/3 61/1/3
f 63/4/3 62/4/3 61/4/3
f 64/4/3 62/4/3 63/4/3
f 67/2/3 66/2/3 65/2/3
f 68/2/3 66/2/3 67/2/3
f 71/2/3 70/2/3 69/2/3
f 73/2/3 71/2/3 69/2/3
f 73/1/3 72/1/3 71/1/3
f 74/1/3 72/1/3 73/1/3
f 75/2/3 73/2/3 69/2/3
f 76/2/3 73/2/3 75/2/3
f 79/1/3 78/1/3 77/1/3
f 80/1/3 78/1/3 79/1/3
f 83/1/3 82/1/3 81/1/3
f 84/1/3 82/1/3 83/1/3
f 87/4/3 86/4/3 85/4/3
f 88/4/3 86/4/3 87/4/3
f 91/4/3 90/4/3 89/4/3
f 92/4/3 90/4/3 91/4/3
f 93/4/4 94/4/4 95/4/4
f 95/4/4 94/4/4 96/4/4
f 97/4/4 98/4/4 99/4/4
f 99/4/4 98/4/4 100/4/4
f 101/1/4 102/1/4 103/1/4
f 103/1/4 102/1/4 104/1/4
f 105/2/4 106/2/4 107/2/4
f 107/2/4 106/2/4 108/2/4
f 109/2/4 110/2/4 111/2/4
f 111/2/4 110/2/4 112/2/4
f 113/4/4 114/4/4 115/4/4
f 115/4/4 114/4/4 116/4/4
f 115/1/4 116/1/4 117/1/4
f 117/1/4 116/1/4 118/1/4
f 117/4/4 118/4/4 119/4/4
f 119/4/4 118/4/4 120/4/4
f 125/4/5 122/4/5 121/4/5
f 126/1/5 123/1/5 122/1/5
f 126/4/5 122/4/5 125/4/5
f 127/4/5 124/4/5 123/4/5
f 127/1/5 123/1/5 126/1/5
f 128/4/5 124/4/5 127/4/5
f 133/4/5 130/4/5 129/4/5
f 134/4/5 130/4/5 133/4/5
f 135/4/5 132/4/5 131/4/5
f 136/4/5 132/4/5 135/4/5
f 137/4/6 138/4/6 141/4/6
f 141/4/6 138/4/6 142/4/6
f 139/4/6 140/4/6 143/4/6
f 143/4/6 140/4/6 144/4/6
f 146/1/6 147/1/6 149/1/6
f 149/1/6 147/1/6 150/1/6
f 146/1/6 149/1/6 151/1/6
f 150/1/6 147/1/6 152/1/6
f 145/4/6 146/4/6 153/4/6
f 151/1/6 152/1/6 154/1/6
f 153/4/6 146/4/6 154/4/6
f 146/1/6 151/1/6 154/1/6
f 147/4/6 148/4/6 155/4/6
f 154/1/6 152/1/6 155/1/6
f 152/1/6 147/1/6 155/1/6
f 155/4/6 148/4/6 156/4/6
f 157/2/6 158/2/6 159/2/6
f 159/2/6 158/2/6 160/2/6
f 161/2/6 162/2/6 163/2/6
f 163/2/6 162/2/6 164/2/6
f 165/2/6 166/2/6 169/2/6
f 169/2/6 166/2/6 170/2/6
f 167/2/6 168/2/6 171/2/6
f 171/2/6 168/2/6 172/2/6
f 165/2/6 169/2/6 173/2/6
f 172/2/6 168/2/6 174/2/6
f 165/2/6 173/2/6 175/2/6
f 173/2/6 174/2/6 175/2/6
f 174/2/6 168/2/6 176/2/6
f 175/2/6 174/2/6 176/2/6
f 177/1/6 178/1/6 180/1/6
f 180/1/6 178/1/6 181/1/6
f 179/1/6 180/1/6 183/1/6
f 181/1/6 182/1/6 183/1/6
f 180/1/6 181/1/6 183/1/6
f 183/1/6 182/1/6 184/1/6
